# Blender v3.1.2 OBJ File: 'Grass.blend'
# www.blender.org
mtllib grass.mtl
o Grass_Plane.002
v -0.027031 0.156867 -0.061333
v -0.033055 0.001791 -0.030260
v 0.073023 0.156867 -0.041937
v 0.066999 0.001791 -0.010864
v -0.013126 0.201193 -0.133064
v 0.086928 0.201193 -0.113668
v -0.058472 0.169098 0.056038
v -0.018865 0.002474 0.056038
v -0.058472 0.169098 -0.071495
v -0.018865 0.002474 -0.071495
v -0.149903 0.251996 0.056038
v -0.149903 0.251996 -0.071495
v -0.032449 0.070071 0.072108
v -0.025113 0.003391 0.058058
v -0.077691 0.070071 0.048489
v -0.070356 0.003391 0.034438
v -0.049382 0.103246 0.104544
v -0.094625 0.103246 0.080924
v 0.084195 0.121816 -0.030463
v 0.048676 0.002169 -0.041050
v 0.050107 0.121816 0.083908
v 0.014588 0.003951 0.073321
v 0.166190 0.235666 -0.006025
v 0.132102 0.235666 0.108346
v 0.036655 0.070071 0.014331
v 0.025750 0.003391 0.002828
v -0.000383 0.070071 0.049444
v -0.011288 0.003391 0.037942
v 0.061828 0.103246 0.040885
v 0.024790 0.103246 0.075998
v 0.029913 0.139806 0.096367
v 0.041608 0.004314 0.070145
v -0.054522 0.139806 0.058709
v -0.042827 0.004314 0.032487
v 0.002915 0.185199 0.156901
v -0.081520 0.185199 0.119243
vt 0.222666 0.205920
vt 0.222666 0.001311
vt 0.402334 0.001311
vt 0.402334 0.205920
vt 0.402334 0.455845
vt 0.222666 0.455845
vt 0.798132 0.453027
vt 0.798132 -0.002680
vt 0.999869 -0.002680
vt 0.999869 0.453027
vt 0.999869 0.926508
vt 0.798132 0.926508
vt 0.009647 0.131641
vt 0.009743 0.002986
vt 0.111151 0.003095
vt 0.111056 0.131751
vt 0.111151 0.262639
vt 0.009743 0.262530
vt 0.601829 0.477329
vt 0.601829 -0.008644
vt 0.795857 -0.008644
vt 0.795858 0.477329
vt 0.795858 0.830273
vt 0.601829 0.830273
vt 0.113718 0.130749
vt 0.113718 -0.000098
vt 0.210416 0.000319
vt 0.210416 0.131167
vt 0.210416 0.260355
vt 0.113718 0.260355
vt 0.406566 0.231219
vt 0.406566 0.002344
vt 0.601115 0.002344
vt 0.601115 0.231219
vt 0.591349 0.512703
vt 0.406566 0.512703
vn -0.1865 0.2000 0.9619
vn -0.0987 0.8550 0.5092
vn 0.9729 0.2313 -0.0000
vn 0.6717 0.7408 -0.0000
vn 0.4502 0.2313 -0.8624
vn 0.3109 0.7408 -0.5954
vn -0.9142 0.2979 -0.2748
vn -0.7661 0.6008 -0.2283
vn -0.6693 0.2313 -0.7060
vn -0.4621 0.7408 -0.4875
vn 0.3985 0.2073 -0.8934
vn 0.2302 0.8251 -0.5160
usemtl Material.001
s off
f 1/1/1 2/2/1 4/3/1 3/4/1
f 1/1/2 3/4/2 6/5/2 5/6/2
f 7/7/3 8/8/3 10/9/3 9/10/3
f 7/7/4 9/10/4 12/11/4 11/12/4
f 13/13/5 14/14/5 16/15/5 15/16/5
f 13/13/6 15/16/6 18/17/6 17/18/6
f 19/19/7 20/20/7 22/21/7 21/22/7
f 19/19/8 21/22/8 24/23/8 23/24/8
f 25/25/9 26/26/9 28/27/9 27/28/9
f 25/25/10 27/28/10 30/29/10 29/30/10
f 31/31/11 32/32/11 34/33/11 33/34/11
f 31/31/12 33/34/12 36/35/12 35/36/12
